<svg xmlns="http://www.w3.org/2000/svg" viewBox="0 0 512 512">
    <defs>
        <linearGradient id="a" x1="0%" y1="0%" x2="100%" y2="100%">
            <stop offset="0%" stop-color="#6366F1"/>
            <stop offset="100%" stop-color="#312E81"/>
        </linearGradient>
        <filter id="b" x="-10%" y="-10%" width="120%" height="120%">
            <feDropShadow dx="0" dy="12" stdDeviation="16" flood-color="#000" flood-opacity=".3"/>
        </filter>
        <filter id="c" x="-30%" y="-30%" width="160%" height="160%">
            <feDropShadow dx="0" dy="6" stdDeviation="8" flood-color="#000" flood-opacity=".4"/>
        </filter>
        <clipPath id="d">
            <path d="M120 128L256 128L256 384L120 384A24 24 0 0 1 96 360L96 152A24 24 0 0 1 120 128Z"/>
        </clipPath>
        <clipPath id="e">
            <path d="M256 128L392 128A24 24 0 0 1 416 152L416 360A24 24 0 0 1 392 384L256 384Z"/>
        </clipPath>
    </defs>
    <rect width="512" height="512" rx="112" fill="url(#a)"/>
    <rect x="96" y="128" width="320" height="256" rx="24" fill="#000" filter="url(#b)"/>
    <g clip-path="url(#d)">
        <rect x="96" y="128" width="320" height="256" fill="#F1F5F9"/>
        <circle cx="256" cy="190" r="40" fill="#CBD5E1"/>
        <polygon points="200,384 330,210 480,384" fill="#94A3B8"/>
        <polygon points="60,384 180,240 320,384" fill="#64748B"/>
    </g>
    <g clip-path="url(#e)">
        <rect x="96" y="128" width="320" height="256" fill="#38BDF8"/>
        <circle cx="256" cy="190" r="40" fill="#FBBF24"/>
        <polygon points="200,384 330,210 480,384" fill="#34D399"/>
        <polygon points="60,384 180,240 320,384" fill="#10B981"/>
    </g>
    <rect x="96" y="128" width="320" height="256" rx="24" fill="none" stroke="#FFF" stroke-width="12"/>
    <line x1="256" y1="104" x2="256" y2="408" stroke="#FFF" stroke-width="8" stroke-linecap="round" filter="url(#c)"/>
    <circle cx="256" cy="256" r="32" fill="#FFF" filter="url(#c)"/>
    <path d="M248 244L236 256L248 268" fill="none" stroke="#4F46E5" stroke-width="5" stroke-linecap="round"
          stroke-linejoin="round"/>
    <path d="M264 244L276 256L264 268" fill="none" stroke="#4F46E5" stroke-width="5" stroke-linecap="round"
          stroke-linejoin="round"/>
</svg>
